<svg xmlns="http://www.w3.org/2000/svg" width="1200" height="780">
  <rect width="1200" height="780" fill="#fafcff"/>
  <text x="600" y="40" text-anchor="middle" font-size="28" font-family="Microsoft YaHei" fill="#183a6a">˛2-1 ˚ﬂ(ã∆˛</text>
  <rect x="120" y="80" width="960" height="640" fill="none" stroke="#3b6fd0" stroke-width="2"/>

  <g font-family="Microsoft YaHei" fill="#253b63" font-size="22">
    <text x="170" y="180">∫(7</text>
    <text x="170" y="430">§Î</text>
    <text x="170" y="620">°X</text>
  </g>

  <g fill="#fff3cf" stroke="#c8a85e" stroke-width="2" font-family="Microsoft YaHei" font-size="18">
    <ellipse cx="430" cy="160" rx="110" ry="36"/><text x="430" y="167" text-anchor="middle">Ëå/{U</text>
    <ellipse cx="690" cy="160" rx="120" ry="36"/><text x="690" y="167" text-anchor="middle">O»°yÓ</text>
    <ellipse cx="930" cy="160" rx="120" ry="36"/><text x="930" y="167" text-anchor="middle">U/ÿ</text>

    <ellipse cx="430" cy="300" rx="120" ry="36"/><text x="430" y="307" text-anchor="middle">0@°</text>
    <ellipse cx="690" cy="300" rx="120" ry="36"/><text x="690" y="307" text-anchor="middle">¢UÂ‚</text>
    <ellipse cx="930" cy="300" rx="120" ry="36"/><text x="930" y="307" text-anchor="middle">ƒ˜ï…</text>

    <ellipse cx="560" cy="460" rx="130" ry="36"/><text x="560" y="467" text-anchor="middle">gL°vÙ∞∂</text>
    <ellipse cx="860" cy="460" rx="130" ry="36"/><text x="860" y="467" text-anchor="middle">ÂM¢U</text>

    <ellipse cx="560" cy="620" rx="130" ry="36"/><text x="560" y="627" text-anchor="middle">M§Î</text>
    <ellipse cx="860" cy="620" rx="150" ry="36"/><text x="860" y="627" text-anchor="middle">°yÓCRUDÂ—</text>
  </g>

  <g stroke="#2f4f88" stroke-width="2">
    <line x1="260" y1="170" x2="320" y2="160"/>
    <line x1="260" y1="170" x2="570" y2="160"/>
    <line x1="260" y1="170" x2="810" y2="160"/>
    <line x1="260" y1="170" x2="310" y2="300"/>
    <line x1="260" y1="170" x2="570" y2="300"/>
    <line x1="260" y1="170" x2="810" y2="300"/>

    <line x1="230" y1="420" x2="430" y2="460"/>
    <line x1="230" y1="420" x2="730" y2="460"/>

    <line x1="250" y1="610" x2="430" y2="620"/>
    <line x1="250" y1="610" x2="710" y2="620"/>
  </g>

  <g stroke="#666" stroke-dasharray="6,6" stroke-width="2" fill="none" font-family="Microsoft YaHei" font-size="18" fill="#666">
    <line x1="690" y1="300" x2="860" y2="460"/>
    <line x1="560" y1="620" x2="560" y2="460"/>
    <line x1="860" y1="620" x2="860" y2="460"/>
  </g>
</svg>